<?xml version="1.0" encoding="utf-8"?>
<!-- Generator: Adobe Illustrator 16.0.0, SVG Export Plug-In . SVG Version: 6.00 Build 0)  -->
<!DOCTYPE svg PUBLIC "-//W3C//DTD SVG 1.1//EN" "http://www.w3.org/Graphics/SVG/1.1/DTD/svg11.dtd">
<svg version="1.1" id="Layer_1" xmlns="http://www.w3.org/2000/svg" xmlns:xlink="http://www.w3.org/1999/xlink" x="0px" y="0px"
	 width="425.041px" height="425.042px" viewBox="0 0 425.041 425.042" enable-background="new 0 0 425.041 425.042"
	 xml:space="preserve">
<g>
	<path fill="#FFCC31" d="M212.521,425.042C95.336,425.042,0,329.705,0,212.521C0,95.337,95.336,0,212.521,0
		s212.521,95.336,212.521,212.521C425.042,329.707,329.705,425.042,212.521,425.042z"/>
</g>
<g>
	<g>
		<path fill="#FFFFFF" d="M177.939,333.876c0-39.463,0-78.387,0-118.25c-8.111,0-15.361,0-23.345,0c0-13.475,0-26.016,0-39.742
			c7.6,0,14.868,0,23.838,0c0-11.479-0.326-21.847,0.061-32.183c1.218-32.559,16.002-46.882,48.627-47.319
			c12.027-0.161,24.059-0.027,36.646-0.027c0,13.745,0,26.336,0,40.052c-9.951,0-19.291-0.14-28.627,0.036
			c-12.354,0.232-17.631,5.463-18.086,17.944c-0.242,6.702-0.043,13.42-0.043,21.271c14.787,0,29.078,0,44.846,0
			c-1.971,13.713-3.752,26.111-5.635,39.223c-12.965,0-25.285,0-38.703,0c0,39.957,0,79.132,0,118.996
			C204.181,333.876,191.919,333.876,177.939,333.876z"/>
	</g>
</g>
</svg>
