<?xml version="1.0" encoding="utf-8"?>
<!-- Generator: Adobe Illustrator 16.0.0, SVG Export Plug-In . SVG Version: 6.00 Build 0)  -->
<!DOCTYPE svg PUBLIC "-//W3C//DTD SVG 1.1//EN" "http://www.w3.org/Graphics/SVG/1.1/DTD/svg11.dtd">
<svg version="1.1" id="Layer_1" xmlns="http://www.w3.org/2000/svg" xmlns:xlink="http://www.w3.org/1999/xlink" x="0px" y="0px"
	 width="425.041px" height="425.042px" viewBox="0 0 425.041 425.042" enable-background="new 0 0 425.041 425.042"
	 xml:space="preserve">
<g>
	<g>
		<g>
			<path fill-rule="evenodd" clip-rule="evenodd" d="M177.939,333.877c0-39.463,0-78.388,0-118.25c-8.111,0-15.361,0-23.345,0
				c0-13.475,0-26.016,0-39.742c7.6,0,14.868,0,23.838,0c0-11.48-0.326-21.847,0.061-32.183
				c1.218-32.559,16.002-46.882,48.627-47.319c12.028-0.161,24.059-0.027,36.647-0.027c0,13.745,0,26.336,0,40.052
				c-9.951,0-19.292-0.14-28.627,0.036c-12.355,0.232-17.631,5.463-18.086,17.944c-0.243,6.702-0.043,13.42-0.043,21.271
				c14.787,0,29.078,0,44.845,0c-1.97,13.713-3.752,26.111-5.635,39.224c-12.964,0-25.284,0-38.702,0c0,39.956,0,79.131,0,118.995
				C204.181,333.877,191.919,333.877,177.939,333.877z"/>
		</g>
	</g>
	<g>
		<path d="M212.521,425.042C95.336,425.042,0,329.705,0,212.521S95.336,0,212.521,0c117.185,0,212.521,95.336,212.521,212.521
			S329.705,425.042,212.521,425.042z M212.521,17C104.71,17,17,104.71,17,212.521s87.71,195.521,195.521,195.521
			s195.521-87.711,195.521-195.521S320.331,17,212.521,17z"/>
	</g>
</g>
</svg>
