<?xml version="1.0" encoding="utf-8"?>
<!-- Generator: Adobe Illustrator 16.0.0, SVG Export Plug-In . SVG Version: 6.00 Build 0)  -->
<!DOCTYPE svg PUBLIC "-//W3C//DTD SVG 1.1//EN" "http://www.w3.org/Graphics/SVG/1.1/DTD/svg11.dtd">
<svg version="1.1" id="Layer_1" xmlns="http://www.w3.org/2000/svg" xmlns:xlink="http://www.w3.org/1999/xlink" x="0px" y="0px"
	 width="425.041px" height="425.042px" viewBox="0 0 425.041 425.042" enable-background="new 0 0 425.041 425.042"
	 xml:space="preserve">
<path d="M213.077,0C95.893,0,0.557,95.336,0.557,212.521s95.336,212.521,212.521,212.521c117.185,0,212.521-95.337,212.521-212.521
	S330.262,0,213.077,0z M264.324,136.407c-9.951,0-19.292-0.14-28.627,0.036c-12.355,0.232-17.631,5.463-18.086,17.944
	c-0.243,6.702-0.043,13.42-0.043,21.271c14.787,0,29.078,0,44.845,0c-1.97,13.713-3.752,26.111-5.635,39.224
	c-12.964,0-25.284,0-38.702,0c0,39.956,0,79.131,0,118.995c-13.339,0-25.6,0-39.58,0c0-39.463,0-78.388,0-118.25
	c-8.111,0-15.361,0-23.345,0c0-13.475,0-26.016,0-39.742c7.6,0,14.868,0,23.838,0c0-11.48-0.326-21.847,0.061-32.183
	c1.218-32.559,16.002-46.882,48.627-47.319c12.028-0.161,24.059-0.027,36.647-0.027
	C264.324,110.101,264.324,122.691,264.324,136.407z"/>
</svg>
