<?xml version="1.0" encoding="utf-8"?>
<!-- Generator: Adobe Illustrator 16.0.0, SVG Export Plug-In . SVG Version: 6.00 Build 0)  -->
<!DOCTYPE svg PUBLIC "-//W3C//DTD SVG 1.1//EN" "http://www.w3.org/Graphics/SVG/1.1/DTD/svg11.dtd">
<svg version="1.1" id="Layer_1" xmlns="http://www.w3.org/2000/svg" xmlns:xlink="http://www.w3.org/1999/xlink" x="0px" y="0px"
	 width="425.041px" height="425.042px" viewBox="0 0 425.041 425.042" enable-background="new 0 0 425.041 425.042"
	 xml:space="preserve">
<path d="M213.354,0C96.17,0,0.833,95.336,0.833,212.521S96.17,425.042,213.354,425.042s212.521-95.337,212.521-212.521
	S330.538,0,213.354,0z M313.887,204.729c-1.914,7.513-4.632,14.848-7.355,22.126c-4.008,10.717-10.395,20.021-18.323,28.188
	c-8.376,8.625-18.216,15.012-29.882,18.428c-10.628,3.114-21.35,3.932-32.226,1.688c-7.646-1.578-13.973-5.84-20.23-10.217
	c-2.507-1.756-5.067-3.438-8.089-5.482c-0.708,3.42-1.217,6.314-1.915,9.164c-2.495,10.198-4.933,20.414-7.626,30.559
	c-2.662,10.029-6.803,19.475-12.179,28.354c-4.143,6.841-9.208,12.927-15.399,18.03c-0.744,0.616-1.637,1.05-2.972,1.89
	c-0.589-6.505-1.512-12.377-1.559-18.257c-0.068-8.72,0.183-17.467,0.875-26.157c0.506-6.348,1.854-12.639,2.989-18.925
	c1.09-6.034,2.22-12.073,3.64-18.035c1.882-7.905,4.122-15.726,6.103-23.605c2.506-9.967,4.818-19.979,7.419-29.919
	c0.579-2.208,0.069-3.842-0.802-5.765c-4.476-9.872-5.048-20.158-2.984-30.702c1.532-7.823,4.16-15.169,9.175-21.477
	c4.472-5.626,9.964-9.635,17.429-10.033c8.512-0.455,19.892,3.016,22.375,14.877c0.85,4.058,0.803,8.563,0.029,12.648
	c-1.406,7.419-3.558,14.707-5.596,21.995c-1.646,5.891-3.833,11.639-5.321,17.564c-1.318,5.252-2.603,10.636-2.841,16.008
	c-0.456,10.327,3.043,18.06,14.75,21.169c15.688,4.168,28.147-1.229,38.192-13.224c8.451-10.09,13.155-21.971,16.129-34.665
	c3.256-13.894,3.93-27.89,1.622-41.939c-2.857-17.409-11.373-30.969-27.171-39.793c-13.745-7.68-28.313-9.77-43.527-7.312
	c-14.995,2.423-28.307,8.884-39.838,18.848c-7.612,6.577-13.828,14.318-18.222,23.354c-5.068,10.42-7.253,21.442-6.763,33.135
	c0.355,8.467,3.087,15.828,7.604,22.794c2.808,4.33,5.258,9.07,4.37,14.346c-0.713,4.238-2.515,8.305-4.004,12.385
	c-0.172,0.475-1.521,0.928-2.164,0.765c-14.94-3.841-25.74-12.402-30.888-27.339c-1.8-5.222-3.256-10.496-3.394-16.083
	c-0.136-5.51-0.877-11.032-0.64-16.52c0.636-14.74,4.666-28.571,12.312-41.253c11.216-18.606,27.187-31.783,46.94-40.437
	c10.193-4.466,20.841-7.438,32.063-7.899c5.83-0.24,11.686-0.939,17.486-0.623c12.627,0.687,25.006,2.703,36.988,7.2
	c12.934,4.853,24.476,11.684,34.112,21.57c8.216,8.429,14.223,18.213,17.8,29.517c2.896,9.159,4.148,18.475,4.279,28.058
	C316.801,184.179,316.465,194.604,313.887,204.729z"/>
</svg>
