<?xml version="1.0" encoding="utf-8"?>
<!-- Generator: Adobe Illustrator 16.0.0, SVG Export Plug-In . SVG Version: 6.00 Build 0)  -->
<!DOCTYPE svg PUBLIC "-//W3C//DTD SVG 1.1//EN" "http://www.w3.org/Graphics/SVG/1.1/DTD/svg11.dtd">
<svg version="1.1" id="Layer_1" xmlns="http://www.w3.org/2000/svg" xmlns:xlink="http://www.w3.org/1999/xlink" x="0px" y="0px"
	 width="425.041px" height="425.042px" viewBox="0 0 425.041 425.042" enable-background="new 0 0 425.041 425.042"
	 xml:space="preserve">
<g>
	<path d="M213.354,425.042c-117.184,0-212.521-95.337-212.521-212.521S96.17,0,213.354,0s212.521,95.336,212.521,212.521
		S330.538,425.042,213.354,425.042z M213.354,17c-107.81,0-195.521,87.71-195.521,195.521s87.71,195.521,195.521,195.521
		s195.521-87.711,195.521-195.521S321.164,17,213.354,17z"/>
</g>
<g>
	<g>
		<path fill-rule="evenodd" clip-rule="evenodd" fill="#FFFFFF" d="M197.781,259.459c3.022,2.044,5.582,3.727,8.089,5.482
			c6.257,4.377,12.584,8.639,20.23,10.217c10.876,2.244,21.598,1.427,32.226-1.688c11.666-3.416,21.506-9.803,29.882-18.428
			c7.929-8.166,14.315-17.471,18.323-28.188c2.724-7.278,5.441-14.613,7.355-22.126c2.578-10.126,2.914-20.551,2.771-31.004
			c-0.131-9.583-1.383-18.898-4.279-28.058c-3.577-11.304-9.584-21.088-17.8-29.517c-9.637-9.887-21.179-16.718-34.112-21.57
			c-11.982-4.497-24.361-6.514-36.988-7.2c-5.801-0.316-11.656,0.383-17.486,0.623c-11.222,0.462-21.87,3.434-32.063,7.899
			c-19.754,8.653-35.725,21.83-46.94,40.437c-7.646,12.682-11.676,26.513-12.312,41.253c-0.237,5.487,0.503,11.01,0.64,16.52
			c0.137,5.587,1.593,10.861,3.394,16.083c5.147,14.937,15.947,23.498,30.888,27.339c0.643,0.163,1.991-0.29,2.164-0.765
			c1.489-4.08,3.291-8.146,4.004-12.385c0.888-5.275-1.562-10.016-4.37-14.346c-4.516-6.966-7.249-14.327-7.604-22.794
			c-0.49-11.692,1.695-22.715,6.763-33.135c4.394-9.035,10.609-16.776,18.222-23.354c11.532-9.964,24.844-16.425,39.838-18.848
			c15.213-2.458,29.782-0.368,43.527,7.312c15.798,8.824,24.313,22.384,27.171,39.793c2.308,14.05,1.634,28.046-1.622,41.939
			c-2.974,12.694-7.678,24.575-16.129,34.665c-10.045,11.995-22.504,17.392-38.192,13.224c-11.706-3.109-15.206-10.842-14.75-21.169
			c0.238-5.372,1.523-10.756,2.841-16.008c1.488-5.926,3.675-11.674,5.321-17.564c2.038-7.288,4.189-14.576,5.596-21.995
			c0.773-4.086,0.82-8.591-0.029-12.648c-2.482-11.861-13.863-15.332-22.375-14.877c-7.464,0.398-12.957,4.407-17.429,10.033
			c-5.015,6.308-7.643,13.653-9.175,21.477c-2.064,10.544-1.492,20.83,2.984,30.702c0.871,1.923,1.38,3.557,0.802,5.765
			c-2.601,9.939-4.914,19.952-7.419,29.919c-1.981,7.88-4.221,15.7-6.103,23.605c-1.42,5.962-2.549,12.001-3.64,18.035
			c-1.135,6.286-2.482,12.577-2.989,18.925c-0.692,8.69-0.943,17.438-0.875,26.157c0.046,5.88,0.97,11.752,1.559,18.257
			c1.335-0.84,2.228-1.273,2.972-1.89c6.191-5.104,11.256-11.189,15.399-18.03c5.376-8.879,9.518-18.324,12.179-28.354
			c2.693-10.145,5.131-20.36,7.626-30.559C196.564,265.773,197.074,262.879,197.781,259.459z"/>
	</g>
	<g>
		<path fill-rule="evenodd" clip-rule="evenodd" d="M197.781,259.459c-0.708,3.42-1.217,6.314-1.915,9.164
			c-2.495,10.198-4.933,20.414-7.626,30.559c-2.662,10.029-6.803,19.475-12.179,28.354c-4.143,6.841-9.208,12.927-15.399,18.03
			c-0.744,0.616-1.637,1.05-2.972,1.89c-0.589-6.505-1.512-12.377-1.559-18.257c-0.068-8.72,0.183-17.467,0.875-26.157
			c0.506-6.348,1.854-12.639,2.989-18.925c1.09-6.034,2.22-12.073,3.64-18.035c1.882-7.905,4.122-15.726,6.103-23.605
			c2.506-9.967,4.818-19.979,7.419-29.919c0.579-2.208,0.069-3.842-0.802-5.765c-4.476-9.872-5.048-20.158-2.984-30.702
			c1.532-7.823,4.16-15.169,9.175-21.477c4.472-5.626,9.964-9.635,17.429-10.033c8.512-0.455,19.892,3.016,22.375,14.877
			c0.85,4.058,0.803,8.563,0.029,12.648c-1.406,7.419-3.558,14.707-5.596,21.995c-1.646,5.891-3.833,11.639-5.321,17.564
			c-1.318,5.252-2.603,10.636-2.841,16.008c-0.456,10.327,3.043,18.06,14.75,21.169c15.688,4.168,28.147-1.229,38.192-13.224
			c8.451-10.09,13.155-21.971,16.129-34.665c3.256-13.894,3.93-27.89,1.622-41.939c-2.857-17.409-11.373-30.969-27.171-39.793
			c-13.745-7.68-28.313-9.77-43.527-7.312c-14.995,2.423-28.307,8.884-39.838,18.848c-7.612,6.577-13.828,14.318-18.222,23.354
			c-5.068,10.42-7.253,21.442-6.763,33.135c0.355,8.467,3.087,15.828,7.604,22.794c2.808,4.33,5.258,9.07,4.37,14.346
			c-0.713,4.238-2.515,8.305-4.004,12.385c-0.172,0.475-1.521,0.928-2.164,0.765c-14.94-3.841-25.74-12.402-30.888-27.339
			c-1.8-5.222-3.256-10.496-3.394-16.083c-0.136-5.51-0.877-11.032-0.64-16.52c0.636-14.74,4.666-28.571,12.312-41.253
			c11.216-18.606,27.187-31.783,46.94-40.437c10.193-4.466,20.841-7.438,32.063-7.899c5.83-0.24,11.686-0.939,17.486-0.623
			c12.627,0.687,25.006,2.703,36.988,7.2c12.934,4.853,24.476,11.684,34.112,21.57c8.216,8.429,14.223,18.213,17.8,29.517
			c2.896,9.159,4.148,18.475,4.279,28.058c0.143,10.453-0.193,20.878-2.771,31.004c-1.914,7.513-4.632,14.848-7.355,22.126
			c-4.008,10.717-10.395,20.021-18.323,28.188c-8.376,8.625-18.216,15.012-29.882,18.428c-10.628,3.114-21.35,3.932-32.226,1.688
			c-7.646-1.578-13.973-5.84-20.23-10.217C203.363,263.186,200.803,261.503,197.781,259.459z"/>
	</g>
</g>
</svg>
