<?xml version="1.0" encoding="utf-8"?>
<!-- Generator: Adobe Illustrator 16.0.0, SVG Export Plug-In . SVG Version: 6.00 Build 0)  -->
<!DOCTYPE svg PUBLIC "-//W3C//DTD SVG 1.1//EN" "http://www.w3.org/Graphics/SVG/1.1/DTD/svg11.dtd">
<svg version="1.1" id="Layer_1" xmlns="http://www.w3.org/2000/svg" xmlns:xlink="http://www.w3.org/1999/xlink" x="0px" y="0px"
	 width="425.041px" height="425.042px" viewBox="0 0 425.041 425.042" enable-background="new 0 0 425.041 425.042"
	 xml:space="preserve">
<g>
	<path fill="#FFCC31" d="M213.521,426.042C96.337,426.042,1,330.705,1,213.521C1,96.337,96.337,1,213.521,1
		c117.185,0,212.521,95.336,212.521,212.521C426.041,330.707,330.705,426.042,213.521,426.042z"/>
</g>
<g>
	<g>
		<path fill="#FFFFFF" d="M354.574,293.298c-1.847,5.554-4.635,7.795-10.489,7.953c-13.198,0.36-26.421,0.236-39.597,0.982
			c-12.083,0.686-21.279-4.441-29.188-12.76c-6.154-6.471-12.007-13.23-18.168-19.695c-1.898-1.992-4.238-3.66-6.615-5.072
			c-4.252-2.527-7.285-1.906-10.55,1.728c-3.225,3.59-4.938,7.915-5.614,12.595c-0.555,3.84-0.771,7.735-0.969,11.613
			c-0.354,6.97-3.256,10.609-10.207,10.727c-10.694,0.178-21.473,0.293-32.083-0.822c-10.54-1.111-20.401-5.154-29.554-10.699
			c-8.176-4.951-16.103-10.219-23.29-16.575c-6.385-5.646-11.73-12.205-16.749-19.024c-6.677-9.07-13.423-18.121-19.543-27.566
			c-5.82-8.984-11.27-18.261-16.173-27.777c-7.576-14.702-14.574-29.708-21.759-44.612c-2.091-4.338-1.842-7.434,0.994-9.215
			c1.627-1.022,3.738-1.498,5.688-1.719c2.688-0.305,5.43-0.14,8.149-0.17c11.027-0.116,22.057-0.244,33.085-0.342
			c5.112-0.045,10.417,2.822,12.929,8.506c5.055,11.432,10.651,22.634,16.335,33.771c3.385,6.63,7.019,13.194,11.202,19.336
			c2.751,4.039,6.587,7.367,10.138,10.806c1.039,1.004,2.718,1.477,4.191,1.869c2.676,0.714,4.917-0.504,6.365-2.848
			c2.59-4.194,3.022-8.919,3.651-13.625c1.63-12.191,1.708-24.371-0.291-36.528c-0.339-2.067-0.859-4.115-1.453-6.125
			c-1.779-6.023-6.452-8.611-12.054-10.101c-1.124-0.3-2.178-0.861-3.263-1.303c0.643-1.104,1.138-2.336,1.955-3.29
			c3.923-4.585,9.323-5.956,14.979-6.544c14.249-1.485,28.516-1.674,42.762-0.008c3.987,0.467,8.188,1.038,10.973,4.38
			c2.568,3.082,3.486,6.981,3.469,10.91c-0.047,10.277-0.327,20.556-0.527,30.833c-0.107,5.449-0.438,10.902-0.295,16.342
			c0.096,3.629,0.613,7.292,1.404,10.836c0.398,1.79,1.602,3.545,2.838,4.968c2.002,2.301,5.227,2.311,7.766,0.287
			c4.588-3.651,8.541-7.904,11.9-12.72c8.33-11.942,15.77-24.404,21.813-37.671c2.222-4.876,4.306-9.817,6.336-14.78
			c2.174-5.305,4.584-6.699,10.346-6.692c15.148,0.015,30.3-0.229,45.45-0.253c2.897-0.007,5.814,0.392,8.69,0.825
			c2.503,0.375,4.014,2.146,5.025,4.372c0,1.401,0,2.805,0,4.206c-1.229,3.169-2.25,6.437-3.721,9.488
			c-5.389,11.187-12.765,21.106-20.091,31.045c-7.002,9.499-14.104,18.928-20.98,28.517c-4.124,5.75-3.784,10.968,0.677,16.442
			c1.371,1.682,2.903,3.24,4.439,4.779c7.789,7.797,15.862,15.33,23.336,23.42c7.024,7.604,14.231,15.283,16.34,26.068
			C354.574,292.673,354.574,292.985,354.574,293.298z"/>
	</g>
</g>
</svg>
