<?xml version="1.0" encoding="utf-8"?>
<!-- Generator: Adobe Illustrator 16.0.0, SVG Export Plug-In . SVG Version: 6.00 Build 0)  -->
<!DOCTYPE svg PUBLIC "-//W3C//DTD SVG 1.1//EN" "http://www.w3.org/Graphics/SVG/1.1/DTD/svg11.dtd">
<svg version="1.1" id="Layer_1" xmlns="http://www.w3.org/2000/svg" xmlns:xlink="http://www.w3.org/1999/xlink" x="0px" y="0px"
	 width="425.041px" height="425.042px" viewBox="0 0 425.041 425.042" enable-background="new 0 0 425.041 425.042"
	 xml:space="preserve">
<path d="M213.521,1C96.337,1,1,96.336,1,213.521s95.336,212.521,212.521,212.521c117.184,0,212.52-95.337,212.52-212.521
	S330.705,1,213.521,1z M354.574,152.603c-1.228,3.169-2.25,6.437-3.721,9.488c-5.388,11.187-12.764,21.106-20.09,31.045
	c-7.002,9.499-14.104,18.928-20.981,28.517c-4.124,5.75-3.784,10.967,0.677,16.442c1.371,1.682,2.903,3.24,4.439,4.78
	c7.789,7.797,15.863,15.33,23.336,23.42c7.025,7.604,14.232,15.282,16.34,26.068c0,0.31,0,0.622,0,0.936
	c-1.846,5.553-4.635,7.795-10.489,7.952c-13.198,0.361-26.421,0.237-39.597,0.983c-12.082,0.685-21.279-4.441-29.188-12.76
	c-6.154-6.47-12.007-13.23-18.168-19.695c-1.898-1.992-4.239-3.661-6.616-5.073c-4.251-2.527-7.285-1.905-10.549,1.728
	c-3.225,3.59-4.938,7.915-5.614,12.595c-0.555,3.839-0.771,7.735-0.969,11.613c-0.354,6.97-3.256,10.609-10.207,10.726
	c-10.694,0.179-21.473,0.293-32.083-0.822c-10.54-1.111-20.401-5.154-29.554-10.699c-8.176-4.951-16.103-10.218-23.29-16.575
	c-6.385-5.646-11.73-12.205-16.749-19.024c-6.677-9.071-13.423-18.122-19.543-27.567c-5.82-8.984-11.27-18.261-16.173-27.777
	c-7.576-14.702-14.574-29.708-21.759-44.612c-2.091-4.338-1.842-7.434,0.994-9.215c1.627-1.022,3.738-1.498,5.688-1.719
	c2.688-0.305,5.43-0.14,8.149-0.17c11.027-0.116,22.057-0.244,33.085-0.342c5.112-0.045,10.417,2.822,12.929,8.506
	c5.055,11.432,10.651,22.634,16.335,33.771c3.385,6.63,7.019,13.194,11.202,19.336c2.751,4.039,6.587,7.367,10.138,10.806
	c1.039,1.004,2.718,1.477,4.191,1.87c2.676,0.713,4.917-0.504,6.365-2.848c2.59-4.194,3.022-8.92,3.651-13.626
	c1.63-12.191,1.708-24.371-0.291-36.528c-0.339-2.067-0.859-4.115-1.453-6.125c-1.779-6.023-6.452-8.611-12.054-10.101
	c-1.124-0.3-2.178-0.861-3.263-1.303c0.643-1.104,1.138-2.336,1.955-3.29c3.923-4.585,9.323-5.956,14.979-6.544
	c14.249-1.485,28.516-1.674,42.761-0.008c3.988,0.467,8.188,1.038,10.973,4.38c2.568,3.082,3.486,6.981,3.469,10.91
	c-0.047,10.277-0.327,20.556-0.527,30.833c-0.107,5.449-0.438,10.902-0.295,16.342c0.095,3.629,0.613,7.292,1.404,10.836
	c0.398,1.79,1.601,3.545,2.838,4.968c2.002,2.301,5.226,2.31,7.766,0.287c4.588-3.651,8.541-7.904,11.9-12.72
	c8.33-11.942,15.77-24.404,21.812-37.671c2.222-4.876,4.306-9.817,6.337-14.78c2.173-5.305,4.583-6.699,10.345-6.692
	c15.149,0.015,30.3-0.229,45.45-0.253c2.898-0.007,5.815,0.392,8.691,0.825c2.503,0.375,4.013,2.146,5.025,4.372
	C354.574,149.798,354.574,151.201,354.574,152.603z"/>
</svg>
